<?xml version="1.0" encoding="utf-8"?>
<!-- Generator: Adobe Illustrator 26.0.1, SVG Export Plug-In . SVG Version: 6.00 Build 0)  -->
<svg version="1.1" id="Layer_1" xmlns="http://www.w3.org/2000/svg" xmlns:xlink="http://www.w3.org/1999/xlink" x="0px" y="0px"
	 viewBox="0 0 216 216" style="enable-background:new 0 0 216 216;" xml:space="preserve">
<style type="text/css">
	.st0{clip-path:url(#SVGID_00000145772668505016072140000016686624943993512849_);fill:#FFFFFF;}
	.st1{clip-path:url(#SVGID_00000145772668505016072140000016686624943993512849_);fill:#B6892D;}
	
		.st2{clip-path:url(#SVGID_00000145772668505016072140000016686624943993512849_);fill:none;stroke:#686868;stroke-width:1.579;stroke-miterlimit:10;}
	
		.st3{clip-path:url(#SVGID_00000145772668505016072140000016686624943993512849_);fill:none;stroke:#B6892D;stroke-width:1.579;stroke-miterlimit:10;}
	.st4{clip-path:url(#SVGID_00000145772668505016072140000016686624943993512849_);fill:#686868;}
	
		.st5{clip-path:url(#SVGID_00000145772668505016072140000016686624943993512849_);fill:none;stroke:#686868;stroke-width:0.432;stroke-miterlimit:10;}
	.st6{font-family:'BlendaScript';}
	.st7{font-size:10.5332px;}
	.st8{clip-path:url(#SVGID_00000007395143462532016520000011032179620494561668_);fill:#FFFFFF;}
	
		.st9{clip-path:url(#SVGID_00000007395143462532016520000011032179620494561668_);fill:none;stroke:#B6892D;stroke-width:1.579;stroke-miterlimit:10;}
	.st10{clip-path:url(#SVGID_00000007395143462532016520000011032179620494561668_);fill:#686868;}
	
		.st11{clip-path:url(#SVGID_00000007395143462532016520000011032179620494561668_);fill:none;stroke:#686868;stroke-width:0.432;stroke-miterlimit:10;}
	.st12{fill:#686868;}
	.st13{font-family:'KismetNF';}
	.st14{font-size:40.43px;}
	.st15{letter-spacing:-2;}
	.st16{font-size:32.6544px;}
</style>
<g>
	<defs>
		<rect id="SVGID_1_" x="9" y="33.48" width="198" height="157.24"/>
	</defs>
	<clipPath id="SVGID_00000139264860808044810480000005241319183061902499_">
		<use xlink:href="#SVGID_1_"  style="overflow:visible;"/>
	</clipPath>
	<path style="clip-path:url(#SVGID_00000139264860808044810480000005241319183061902499_);fill:#FFFFFF;" d="M70.76,164.76
		c-28.84-20.38-35.69-60.28-15.31-89.12s60.28-35.69,89.12-15.31c28.84,20.38,35.69,60.28,15.31,89.12S99.6,185.14,70.76,164.76"/>
	<path style="clip-path:url(#SVGID_00000139264860808044810480000005241319183061902499_);fill:#B6892D;" d="M69.85,166.05
		c-6.98-4.98-12.98-11.32-17.52-18.59c-4.55-7.26-7.63-15.42-9.04-23.85c-1.41-8.43-1.16-17.14,0.76-25.46
		c1.91-8.33,5.5-16.25,10.44-23.19c4.95-6.94,11.26-12.91,18.48-17.41c7.22-4.52,15.33-7.58,23.71-8.99s17.03-1.15,25.31,0.75
		c8.27,1.9,16.15,5.46,23.05,10.38c6.9,4.92,12.83,11.19,17.31,18.37c4.49,7.17,7.54,15.23,8.93,23.56
		c1.4,8.33,1.15,16.93-0.75,25.15c-1.89,8.22-5.43,16.05-10.32,22.91c-4.89,6.86-11.12,12.75-18.26,17.2
		c-7.13,4.46-15.14,7.49-23.42,8.88c-8.28,1.39-16.83,1.14-25-0.74c-8.17-1.87-15.95-5.4-22.77-10.25L69.85,166.05z M70.76,164.76
		c6.86,4.8,14.65,8.26,22.81,10.06c8.16,1.82,16.67,1.99,24.89,0.55c8.22-1.45,16.14-4.51,23.17-8.99
		c7.04-4.47,13.15-10.35,17.93-17.16c4.77-6.82,8.2-14.56,10-22.67c1.8-8.11,1.98-16.56,0.54-24.73
		c-1.44-8.17-4.49-16.04-8.93-23.03c-4.44-6.99-10.28-13.07-17.05-17.82c-6.77-4.74-14.47-8.15-22.53-9.93
		c-8.06-1.79-16.46-1.97-24.58-0.54c-8.12,1.43-15.94,4.46-22.88,8.88c-6.95,4.41-12.99,10.22-17.71,16.94
		c-4.71,6.73-8.1,14.38-9.87,22.39c-1.78,8.01-1.96,16.36-0.54,24.43c1.42,8.07,4.43,15.84,8.82,22.74
		c4.38,6.9,10.15,12.9,16.84,17.59L70.76,164.76z"/>
	
		<rect x="59.24" y="115.77" style="clip-path:url(#SVGID_00000139264860808044810480000005241319183061902499_);fill:#FFFFFF;" width="96.86" height="68.94"/>
	<path style="clip-path:url(#SVGID_00000139264860808044810480000005241319183061902499_);fill:#FFFFFF;" d="M116.25,45.49
		c0-1.72-3.84-3.11-8.59-3.11c-4.74,0-8.58,1.39-8.58,3.11c0,1.72,3.84,3.11,8.58,3.11C112.41,48.6,116.25,47.21,116.25,45.49"/>
	
		<path style="clip-path:url(#SVGID_00000139264860808044810480000005241319183061902499_);fill:none;stroke:#686868;stroke-width:1.579;stroke-miterlimit:10;" d="
		M116.25,45.49c0-1.72-3.84-3.11-8.59-3.11c-4.74,0-8.58,1.39-8.58,3.11c0,1.72,3.84,3.11,8.58,3.11
		C112.41,48.6,116.25,47.21,116.25,45.49z"/>
	
		<line style="clip-path:url(#SVGID_00000139264860808044810480000005241319183061902499_);fill:#FFFFFF;" x1="107.67" y1="52.84" x2="107.67" y2="61.63"/>
	
		<line style="clip-path:url(#SVGID_00000139264860808044810480000005241319183061902499_);fill:none;stroke:#B6892D;stroke-width:1.579;stroke-miterlimit:10;" x1="107.67" y1="52.84" x2="107.67" y2="61.63"/>
	
		<line style="clip-path:url(#SVGID_00000139264860808044810480000005241319183061902499_);fill:#FFFFFF;" x1="159.49" y1="112.54" x2="168.27" y2="112.54"/>
	
		<line style="clip-path:url(#SVGID_00000139264860808044810480000005241319183061902499_);fill:none;stroke:#B6892D;stroke-width:1.579;stroke-miterlimit:10;" x1="159.49" y1="112.54" x2="168.27" y2="112.54"/>
	
		<line style="clip-path:url(#SVGID_00000139264860808044810480000005241319183061902499_);fill:#FFFFFF;" x1="56" y1="112.54" x2="47.22" y2="112.54"/>
	
		<line style="clip-path:url(#SVGID_00000139264860808044810480000005241319183061902499_);fill:none;stroke:#B6892D;stroke-width:1.579;stroke-miterlimit:10;" x1="56" y1="112.54" x2="47.22" y2="112.54"/>
	
		<line style="clip-path:url(#SVGID_00000139264860808044810480000005241319183061902499_);fill:#686868;" x1="89.62" y1="63.04" x2="87.92" y2="57.24"/>
	
		<line style="clip-path:url(#SVGID_00000139264860808044810480000005241319183061902499_);fill:none;stroke:#686868;stroke-width:0.432;stroke-miterlimit:10;" x1="89.62" y1="63.04" x2="87.92" y2="57.24"/>
	
		<line style="clip-path:url(#SVGID_00000139264860808044810480000005241319183061902499_);fill:#686868;" x1="55.15" y1="102.53" x2="49.19" y2="101.52"/>
	
		<line style="clip-path:url(#SVGID_00000139264860808044810480000005241319183061902499_);fill:none;stroke:#686868;stroke-width:0.432;stroke-miterlimit:10;" x1="55.15" y1="102.53" x2="49.19" y2="101.52"/>
	
		<line style="clip-path:url(#SVGID_00000139264860808044810480000005241319183061902499_);fill:#686868;" x1="58.53" y1="90.3" x2="53.48" y2="86.97"/>
	
		<line style="clip-path:url(#SVGID_00000139264860808044810480000005241319183061902499_);fill:none;stroke:#686868;stroke-width:0.432;stroke-miterlimit:10;" x1="58.53" y1="90.3" x2="53.48" y2="86.97"/>
	
		<line style="clip-path:url(#SVGID_00000139264860808044810480000005241319183061902499_);fill:#686868;" x1="65.52" y1="79.86" x2="61.41" y2="75.43"/>
	
		<line style="clip-path:url(#SVGID_00000139264860808044810480000005241319183061902499_);fill:none;stroke:#686868;stroke-width:0.432;stroke-miterlimit:10;" x1="65.52" y1="79.86" x2="61.41" y2="75.43"/>
	
		<line style="clip-path:url(#SVGID_00000139264860808044810480000005241319183061902499_);fill:#686868;" x1="76.04" y1="69.65" x2="72.99" y2="64.43"/>
	
		<line style="clip-path:url(#SVGID_00000139264860808044810480000005241319183061902499_);fill:none;stroke:#686868;stroke-width:0.432;stroke-miterlimit:10;" x1="76.04" y1="69.65" x2="72.99" y2="64.43"/>
</g>
<text transform="matrix(-0.4335 0.9012 -6.1978 -2.9813 61.3158 87.0726)" class="st6 st7">l</text>
<text transform="matrix(0.4335 0.9012 6.1978 -2.9813 153.7051 87.0713)" class="st6 st7">l</text>
<g>
	<defs>
		<rect id="SVGID_00000141422335155246305630000016921061231421024164_" x="9" y="33.48" width="198" height="157.24"/>
	</defs>
	<clipPath id="SVGID_00000131366684190100205080000017953035173932679597_">
		<use xlink:href="#SVGID_00000141422335155246305630000016921061231421024164_"  style="overflow:visible;"/>
	</clipPath>
	<path style="clip-path:url(#SVGID_00000131366684190100205080000017953035173932679597_);fill:#FFFFFF;" d="M111.22,109.93
		c0,1.96-1.59,3.55-3.55,3.55s-3.55-1.59-3.55-3.55c0-1.96,1.59-3.55,3.55-3.55S111.22,107.97,111.22,109.93"/>
	
		<path style="clip-path:url(#SVGID_00000131366684190100205080000017953035173932679597_);fill:none;stroke:#B6892D;stroke-width:1.579;stroke-miterlimit:10;" d="
		M111.22,109.93c0,1.96-1.59,3.55-3.55,3.55s-3.55-1.59-3.55-3.55c0-1.96,1.59-3.55,3.55-3.55S111.22,107.97,111.22,109.93z"/>
	
		<line style="clip-path:url(#SVGID_00000131366684190100205080000017953035173932679597_);fill:#686868;" x1="124.55" y1="63.02" x2="126.25" y2="57.21"/>
	
		<line style="clip-path:url(#SVGID_00000131366684190100205080000017953035173932679597_);fill:none;stroke:#686868;stroke-width:0.432;stroke-miterlimit:10;" x1="124.55" y1="63.02" x2="126.25" y2="57.21"/>
	
		<line style="clip-path:url(#SVGID_00000131366684190100205080000017953035173932679597_);fill:#686868;" x1="159.01" y1="102.51" x2="164.97" y2="101.5"/>
	
		<line style="clip-path:url(#SVGID_00000131366684190100205080000017953035173932679597_);fill:none;stroke:#686868;stroke-width:0.432;stroke-miterlimit:10;" x1="159.01" y1="102.51" x2="164.97" y2="101.5"/>
	
		<line style="clip-path:url(#SVGID_00000131366684190100205080000017953035173932679597_);fill:#686868;" x1="155.63" y1="90.27" x2="160.68" y2="86.95"/>
	
		<line style="clip-path:url(#SVGID_00000131366684190100205080000017953035173932679597_);fill:none;stroke:#686868;stroke-width:0.432;stroke-miterlimit:10;" x1="155.63" y1="90.27" x2="160.68" y2="86.95"/>
	
		<line style="clip-path:url(#SVGID_00000131366684190100205080000017953035173932679597_);fill:#686868;" x1="148.64" y1="79.84" x2="152.75" y2="75.41"/>
	
		<line style="clip-path:url(#SVGID_00000131366684190100205080000017953035173932679597_);fill:none;stroke:#686868;stroke-width:0.432;stroke-miterlimit:10;" x1="148.64" y1="79.84" x2="152.75" y2="75.41"/>
	
		<line style="clip-path:url(#SVGID_00000131366684190100205080000017953035173932679597_);fill:#686868;" x1="138.13" y1="69.63" x2="141.18" y2="64.41"/>
	
		<line style="clip-path:url(#SVGID_00000131366684190100205080000017953035173932679597_);fill:none;stroke:#686868;stroke-width:0.432;stroke-miterlimit:10;" x1="138.13" y1="69.63" x2="141.18" y2="64.41"/>
	
		<line style="clip-path:url(#SVGID_00000131366684190100205080000017953035173932679597_);fill:#686868;" x1="54.96" y1="122.55" x2="48.99" y2="123.56"/>
	
		<line style="clip-path:url(#SVGID_00000131366684190100205080000017953035173932679597_);fill:none;stroke:#686868;stroke-width:0.432;stroke-miterlimit:10;" x1="54.96" y1="122.55" x2="48.99" y2="123.56"/>
	
		<line style="clip-path:url(#SVGID_00000131366684190100205080000017953035173932679597_);fill:#686868;" x1="58.33" y1="134.79" x2="53.28" y2="138.12"/>
	
		<line style="clip-path:url(#SVGID_00000131366684190100205080000017953035173932679597_);fill:none;stroke:#686868;stroke-width:0.432;stroke-miterlimit:10;" x1="58.33" y1="134.79" x2="53.28" y2="138.12"/>
	
		<line style="clip-path:url(#SVGID_00000131366684190100205080000017953035173932679597_);fill:#686868;" x1="159.47" y1="122.55" x2="165.43" y2="123.56"/>
	
		<line style="clip-path:url(#SVGID_00000131366684190100205080000017953035173932679597_);fill:none;stroke:#686868;stroke-width:0.432;stroke-miterlimit:10;" x1="159.47" y1="122.55" x2="165.43" y2="123.56"/>
	
		<line style="clip-path:url(#SVGID_00000131366684190100205080000017953035173932679597_);fill:#686868;" x1="156.09" y1="134.79" x2="161.14" y2="138.12"/>
	
		<line style="clip-path:url(#SVGID_00000131366684190100205080000017953035173932679597_);fill:none;stroke:#686868;stroke-width:0.432;stroke-miterlimit:10;" x1="156.09" y1="134.79" x2="161.14" y2="138.12"/>
</g>
<path d="M126.96,168.21c-0.12,1.14-1.06,2.67-2.59,3.96c0.21,0.06,0.4,0.14,0.52,0.22c0.39,0.26,0.58,0.8,0.52,1.44
	c-0.3,1.59-2.11,3.95-4.59,4.83l0.01-0.01h-0.06c-0.06,0-0.14-0.03-0.16-0.1c-0.04-0.06,0.03-0.17,0.1-0.21
	c2.38-0.89,4.15-3.05,4.35-4.55c0.04-0.35,0-0.85-0.36-1.11c-0.13-0.09-0.35-0.18-0.7-0.19c-0.82,0.63-1.81,1.19-2.85,1.58
	c-0.12,0.04-0.27,0.06-0.43,0.06c-0.19,0-0.39-0.05-0.44-0.19c-0.14-0.32,0.38-0.61,0.56-0.71c1.18-0.63,2.3-1.05,3.08-1.06
	c1.59-1.26,2.59-2.81,2.7-3.99c0.04-0.39-0.05-0.96-0.52-1.28c-0.19-0.12-0.53-0.26-1.09-0.26c-1.15,0-3.42,0.63-7.22,2.99
	c-0.09,0.03-0.19,0.03-0.25-0.05c-0.04-0.08-0.01-0.18,0.05-0.23c3.17-1.94,5.81-3.03,7.41-3.03c0.52,0,0.94,0.1,1.27,0.31
	C126.79,166.92,127.04,167.49,126.96,168.21z M120.47,168.81c0.08,0.01,0.14,0.1,0.12,0.21l-2.11,10.65v-0.01
	c-0.03,0.09-0.09,0.14-0.17,0.14h-0.01c-0.09-0.01-0.16-0.12-0.16-0.19l2.12-10.66c0.01-0.08,0.1-0.16,0.19-0.13H120.47z
	 M123.23,172.62l-0.03-0.05c-0.56,0.14-1.27,0.43-2.21,0.92c-0.19,0.12-0.32,0.21-0.39,0.28c0.12,0.03,0.28,0.01,0.43-0.05
	C121.86,173.43,122.6,173.04,123.23,172.62z M129.04,175.88c-0.47,0.28-1.26,0.91-2.12,1.62c-0.21,0.5-0.45,1.1-0.7,1.62
	c-1.16,2.52-2.2,3.86-3.03,3.86c-0.1,0-0.18-0.01-0.23-0.03c-0.38-0.12-0.49-0.36-0.52-0.54c-0.12-1.09,2.24-3.43,4.19-5.07
	l0.36-0.93l-0.04-0.04c-0.54,0.65-1.1,1.01-1.45,1.04c-0.18,0.01-0.31-0.06-0.4-0.18c-0.17-0.27-0.05-0.8,0.32-1.53
	c0.04-0.09,0.14-0.1,0.22-0.08c0.09,0.04,0.1,0.14,0.08,0.23c-0.43,0.83-0.35,1.18-0.34,1.22h0.09c0.41-0.03,1.41-0.84,2.08-2.25
	c0.04-0.08,0.13-0.1,0.22-0.08c0.08,0.04,0.12,0.13,0.08,0.22c0,0.01-0.28,0.84-0.7,1.94c0.83-0.66,1.45-1.13,1.71-1.28
	c0.08-0.05,0.18-0.03,0.25,0.05C129.16,175.74,129.13,175.84,129.04,175.88z M126.3,178.12l-0.04-0.04
	c-1.77,1.55-3.57,3.48-3.48,4.27c0.01,0.1,0.05,0.22,0.27,0.28C123.93,182.88,125.24,180.63,126.3,178.12z M142.81,175.87
	c0,0-0.01,0.04-0.03,0.05c-0.25,0.44-1.33,2.38-1.95,3.03c-0.05,0.05-0.13,0.08-0.19,0.04c-0.09-0.04-0.12-0.12-0.09-0.18
	c0.23-0.7,0.31-1.29,0.31-1.76c0-0.61-0.14-0.98-0.36-1.05c-0.38-0.12-1.31,0.69-2.32,3.44c-0.03,0.06-0.09,0.1-0.16,0.1
	c-0.08,0-0.13-0.04-0.16-0.1c-0.05-0.13,0.23-1.42,0.61-3.01l-0.04-0.03c-1.9,2.61-4.15,3.74-5.69,3.74c-0.21,0-0.26,0-0.31-0.01
	c-0.78-0.09-1.38-0.54-1.67-1.19c-0.1-0.28-0.18-0.63-0.18-0.97c0-1.41,0.97-3.39,2.64-5.51c2.46-3.07,4.3-4.65,5.27-4.45
	c0.26,0.04,0.56,0.22,0.71,0.72c0.04,0.16,0.06,0.4,0.06,0.69c0,1.7-1.14,4.45-2.42,5.68c-0.06,0.06-0.17,0.05-0.23-0.01
	s-0.05-0.16,0.01-0.22c1.31-1.26,2.32-3.93,2.32-5.46c0-0.23-0.01-0.43-0.06-0.6c-0.08-0.26-0.25-0.43-0.45-0.47
	c-0.44-0.05-1.76,0.28-4.96,4.31c-2.08,2.63-2.56,4.32-2.56,5.31c0,0.39,0.08,0.67,0.18,0.87c0.22,0.53,0.72,0.89,1.37,0.97
	c1.44,0.14,3.78-0.92,5.73-3.61l0.36-0.52l0.18-0.27c0.52-2.1,1.1-4.37,1.32-5.15c0.22-0.84,0.61-1.81,1.05-1.88
	c0.13-0.03,0.27,0.05,0.34,0.18s0.12,0.34,0.12,0.67c0,1.18-0.63,3.47-2.51,6.3l-0.19,0.84c-0.1,0.41-0.21,0.83-0.28,1.19l0.05,0.03
	c0.71-1.41,1.41-2.1,1.98-1.89c0.39,0.13,0.58,0.65,0.58,1.37c0,0.32-0.03,0.66-0.08,0.93l0.04,0.01c0.63-0.97,1.37-2.28,1.38-2.3
	c0.04-0.09,0.14-0.12,0.22-0.08C142.82,175.68,142.85,175.78,142.81,175.87z M139.34,174.33l0.05,0.03c1.45-2.46,1.85-4.35,1.85-5.2
	c0-0.23-0.04-0.39-0.09-0.47c-0.12,0.06-0.44,0.44-0.78,1.63C140.09,171.3,139.71,172.82,139.34,174.33z M142.27,177.54l0.01,0.01
	c-0.08-0.03-0.13-0.13-0.13-0.19l0.65-3.22c0.01-0.09,0.09-0.16,0.18-0.13c0.09,0.01,0.17,0.1,0.14,0.19l-0.32,1.71l0.05,0.01
	c0.58-1.13,1.42-2.45,2.03-2.39c0.28,0.03,0.5,0.3,0.62,0.78c0.03,0.08-0.03,0.17-0.12,0.19s-0.19-0.04-0.22-0.13
	c-0.08-0.31-0.19-0.5-0.31-0.5c-0.52,0-1.62,1.86-2.37,3.58c-0.05,0.05-0.1,0.09-0.17,0.09H142.27z M147.05,175.91
	c-0.05,0.05-0.18,0.19-0.31,0.36l-0.14,0.19c-0.79,1.01-1.33,1.62-1.62,1.63v-0.01c-0.09,0-0.19-0.03-0.23-0.09
	c-0.05-0.08-0.08-0.21-0.08-0.36c0-0.65,0.39-1.92,0.65-2.73c0.03-0.09,0.12-0.14,0.21-0.1c0.09,0.03,0.14,0.12,0.1,0.21
	c-0.34,1.06-0.65,2.34-0.62,2.74c0.34-0.21,0.89-0.91,1.24-1.35l0.1-0.14v0.01c0.47-0.61,0.53-0.69,0.65-0.69
	c0.08,0,0.16,0.08,0.16,0.17c0,0.06-0.04,0.13-0.09,0.16H147.05z M145.74,174.16c-0.1,0.03-0.31,0.04-0.23-0.09l0.04-0.08
	c0.03-0.05,0.06-0.12,0.12-0.13c0.1-0.03,0.3,0,0.31,0.08c-0.08,0.14-0.14,0.19-0.25,0.22H145.74z M148.95,175.61
	c0.09-0.03,0.17,0.06,0.19,0.14c0,0.06-0.08,0.16-0.14,0.18c-0.6,0.12-1.22,0.49-1.67,0.92c0.01,0.09,0.03,0.22,0.03,0.41
	c0,0.45-0.18,0.91-0.92,1.2l0.01-0.01c-0.01,0-0.01,0.01-0.03,0.01c-0.06,0.03-0.12,0.04-0.18,0.04s-0.13-0.03-0.17-0.06
	c-0.08-0.08-0.1-0.19-0.06-0.36c0.09-0.3,0.44-0.83,0.94-1.31c0-0.01-0.01-0.05-0.01-0.06v-0.06c-0.05-0.26-0.09-0.52-0.09-0.76
	c0-0.6,0.36-1.26,1.59-1.71c0.06,0,0.18,0.04,0.21,0.12c0.04,0.06-0.03,0.17-0.1,0.21c-1.09,0.39-1.38,0.87-1.38,1.38
	c0,0.13,0.04,0.35,0.09,0.62c0.52-0.45,1.13-0.8,1.68-0.89H148.95z M150.42,171.82c-1.2,3.84-2.17,7.4-2.16,8.18
	c0.53-0.31,1.66-2.24,2.15-3.08c0.34-0.6,0.61-1.05,0.76-1.26v0.01c0.05-0.06,0.17-0.08,0.25-0.03h-0.01
	c0.05,0.05,0.1,0.13,0.08,0.16c-0.16,0.21-0.47,0.72-0.79,1.28c-1.29,2.21-1.98,3.25-2.5,3.25c-0.08,0-0.16-0.04-0.19-0.13
	c-0.1-0.13-0.12-1.01,1.38-6.13l0.66-2.14l-3.86,1.09h-0.03c-0.08,0-0.14-0.05-0.16-0.13c-0.03-0.06,0.04-0.16,0.12-0.19l4.05-1.14
	c0.35-1.15,0.66-2.14,0.83-2.65c0.08-0.26,0.13-0.41,0.13-0.41c0.03-0.08,0.14-0.13,0.22-0.12c0.06,0.04,0.12,0.14,0.12,0.21
	c-0.32,0.92-0.63,1.93-0.92,2.86l2.3-0.66c0.06,0,0.17,0.06,0.21,0.13c0,0.08-0.06,0.17-0.13,0.21L150.42,171.82z M146.4,178.14
	c0.52-0.22,0.63-0.57,0.62-0.97c-0.32,0.38-0.58,0.74-0.66,0.93L146.4,178.14z M154.21,175.84c-0.12,0.22-0.98,1.8-1.82,1.8
	c-0.08,0-0.18-0.05-0.23-0.18c-0.01-0.13,0-0.48,0.09-0.82l-0.04-0.04c-0.26,0.27-0.57,0.45-0.91,0.45c-0.23,0-0.4-0.12-0.45-0.34
	c-0.13-0.45,0.35-1.28,0.83-1.62c0.16-0.09,0.35-0.16,0.49-0.16c0.17,0,0.34,0.05,0.53,0.21l0.1-0.25c0.01-0.04,0.01-0.05,0.01-0.06
	c0.04-0.06,0.06-0.09,0.08-0.1h-0.01c0.05-0.03,0.12-0.05,0.14-0.03c0.16,0.09,0.12,0.19,0.1,0.25l-0.12,0.32
	c-0.19,0.57-0.56,1.64-0.56,2.03c0.52-0.14,1.15-1.06,1.46-1.63c0.04-0.09,0.14-0.1,0.22-0.08
	C154.22,175.65,154.24,175.75,154.21,175.84z M152.57,175.46c-0.16-0.1-0.28-0.17-0.41-0.17c-0.08,0-0.21,0.04-0.31,0.1
	c-0.41,0.27-0.72,0.97-0.66,1.27c0.01,0.05,0.03,0.08,0.12,0.08C151.78,176.74,152.23,176.12,152.57,175.46z M156.4,175.65
	c0.05,0.05,0.1,0.13,0.08,0.16c-0.17,0.21-0.47,0.72-0.79,1.28c-1.29,2.21-1.98,3.25-2.5,3.25c-0.08,0-0.16-0.04-0.19-0.13
	c-0.1-0.13-0.31-0.41,1.38-6.13c0.62-2.07,1.28-4.1,1.58-5.05l0.17-0.53c0.03-0.06,0.14-0.12,0.21-0.12
	c0.09,0.04,0.16,0.13,0.13,0.21c-1.63,4.9-3.23,10.42-3.21,11.41c0.53-0.31,1.64-2.24,2.15-3.08c0.34-0.6,0.61-1.05,0.76-1.26v0.01
	c0.05-0.06,0.16-0.08,0.25-0.03H156.4z"/>
<text transform="matrix(1 0 0 1 63.4683 138.1143)"><tspan x="0" y="0" class="st12 st13 st14 st15">T</tspan><tspan x="12.41" y="0" class="st12 st13 st14">imeless</tspan></text>
<text transform="matrix(1 0 0 1 72.9868 162.9961)" class="st12 st13 st16">Accents</text>
</svg>
